<svg xmlns="http://www.w3.org/2000/svg" version="1.1" xmlns:xlink="http://www.w3.org/1999/xlink" xmlns:svgjs="http://svgjs.dev/svgjs" width="128" height="128" viewBox="0 0 128 128"><g transform="matrix(0.44782608695652176,0,0,0.44782608695652176,35.33913043478261,12.5)"><svg viewBox="0 0 125 225" data-background-color="#ffffff" preserveAspectRatio="xMidYMid meet" height="230" width="128" xmlns="http://www.w3.org/2000/svg" xmlns:xlink="http://www.w3.org/1999/xlink"><g id="tight-bounds" transform="matrix(1,0,0,1,0,0)"><svg viewBox="0 0 125 225" height="225" width="125"><g><svg></svg></g><g><svg viewBox="0 0 125 225" height="225" width="125"><g><path d="M8.188 130.945l1.455 1.82-0.727-2.366c-0.182-1.092-1.456 0.182-0.728 0.546M9.825 129.854c0.546 0.91 1.092 1.82 1.092 2.729 0 1.274 1.092 1.82 2.001 2.183-1.274-1.456-2.001-5.459-3.093-4.912M79.694 52.707c3.093 0 6.004-0.364 9.28 0.363 8.006 2.001 14.738 6.004 19.287 11.645l12.736 20.379c0.546 5.095 1.638 10.735 1.456 16.921 1.274 0 1.092-1.82 2.547-2.183-1.456 3.639-2.183 8.188-2.547 13.464-0.91-2.911 0-7.278 0.182-9.643-1.274 2.001-2.001 0.546-2.002-0.364 0.182-1.456-0.546-1.274-1.092-1.82-2.001-1.82-3.275-3.821-4.73-6.914 0.91-2.365 1.092-5.822-1.82-7.642-0.91-0.546-2.001-1.456-2.547-2.911-0.728-2.001-2.001-4.367-1.638-7.46 0.182-0.91-2.729 2.001-4.366 0.728-7.096-4.913-14.192-10.553-22.744-15.284-4.549 0-7.824-1.638-9.462-3.639-1.456-1.82-0.364-4.185 1.82-4.367 1.274 0 2.729-0.364 3.821 0.364 0.182-0.728 0.91-1.638 1.819-1.637M61.681 48.522l0.364 0.182c1.82 0.364 2.729 2.911 4.731 2.001 0 1.274 0.182 2.547-0.182 3.457-0.546 1.456-2.183 1.456-3.457 1.456-12.191-0.728-19.287 4.367-26.747 8.733-2.001 1.274-4.185 2.183-5.822 3.821-7.824 7.278-16.376 14.01-18.377 27.475l-1.638 14.92c-0.182 1.638-2.001 3.275-1.637 5.276l1.273 8.916c-1.274-1.274-2.001 0.364-1.637 1.092 0.182 0.546 0.91 2.365 2.001 0.727 1.456 2.729 2.911 8.006 4.913 10.372 6.186 7.278 14.192 13.828 20.742 20.378 1.638-0.364 2.911-0.364 3.275-1.456 0.546 1.092-0.546 2.183-1.455 2.366 2.911 1.82 6.186 3.457 10.553 3.821 5.64 0.364 10.917 1.274 15.829 2.547 2.547-0.728 5.095-1.092 7.824-1.274 0.91 0 1.456-1.456 2.548-1.819l0.182-1.82c1.092 1.638 0.91-0.546 0.182-1.637 1.274 1.092 1.638 2.001 2.183 2.729 0-0.546 1.456-2.547 1.456-0.182l0.363-2.365c0.546-0.364 0.728 2.001 1.274 0.364 0.546-1.638 1.638-0.364 2.729-0.91-0.364 0.728-0.182 2.183 1.092 1.274l1.456-1.274c0.91 2.183 2.365 1.274 3.093 0.91 8.006-5.095 16.012-11.099 23.653-17.104l-0.182 2.366 0.91-2.911c0.91 0.91 1.638 0.182 2.002-0.364 1.092-1.82 2.547-3.639 4.912-5.277-2.911 7.824-6.368 14.01-10.735 19.105l-1.819 2.183c0 1.274-0.364 2.911-1.82 3.093-0.728 0.182-2.183-0.364-3.275 0.728-0.546 0.728 1.274 2.183-0.182 1.092-1.274-0.91-2.547 0-4.003 0.364-1.092 0.364 0.728 1.456 1.092 2.183 0.364 0.728 0.728 1.456 0.546 2.366l-2.002-2.184c-2.365 1.274-3.821 3.639-5.822 5.459-0.91 0.728-0.546 2.001-0.546 3.093-1.274 0-2.729-0.364-3.457 0.364-0.546 0.728-0.364 1.82-0.364 2.911-1.82-0.182-2.001-2.911-3.639-2.365-1.638 0.364-3.457 0.546-4.913 1.455 1.092 2.183-1.82 0.91-1.455 1.274-2.729-1.638-5.095-2.911-8.006-1.82-6.186-2.001-13.828-1.092-19.469-0.364 0-0.91 0.182-1.82-0.182-2.001-0.364 0.91-1.456 0.546-1.273 0.546-3.457-2.365-6.914-3.821-10.553-5.823-3.275 0.364-6.368-1.274-7.278-2.183-2.547-2.365-5.459-1.092-7.824-1.638-5.095-1.274-6.914-6.55-7.46-10.189-0.364-1.82-1.82-2.547-2.366-2.365-2.365-7.642-6.004-14.556-8.915-21.652-0.728-1.82-0.546-3.639-0.546-5.641 0.91 0.364 1.82 0.182 1.638-1.091-0.91-6.004-3.093-10.553-5.459-14.92 1.274-6.186 1.456-13.464 4.367-18.923 2.547-4.913 7.278-7.46 10.553-11.645 1.092-1.456 1.092-3.457 2.183-4.731 3.639-3.639 7.278-7.46 11.281-10.735 1.82-1.456 4.003 0 6.732-0.546 0.91-3.275 4.549-6.186 8.006-5.276 1.456 0.364 4.367-3.457 5.277-3.821 1.456-0.546 0.728 1.456 0.728 2.729 3.457-2.729 8.188-4.185 12.554-5.822" fill="#0063db" fill-rule="nonzero" stroke="none" stroke-width="1" stroke-linecap="butt" stroke-linejoin="miter" stroke-miterlimit="10" stroke-dasharray="" stroke-dashoffset="0" font-family="none" font-weight="none" font-size="none" text-anchor="none" style="mix-blend-mode: normal" data-fill-palette-color="tertiary"></path></g><g transform="matrix(1,0,0,1,39.325,85.16129587155963)"><svg viewBox="0 0 46.35 54.67740825688074" height="54.67740825688074" width="46.35"><g><svg viewBox="0 0 46.35 54.67740825688074" height="54.67740825688074" width="46.35"><g><svg viewBox="0 0 46.35 54.67740825688074" height="54.67740825688074" width="46.35"><g id="textblocktransform"><svg viewBox="0 0 46.35 54.67740825688074" height="54.67740825688074" width="46.35" id="textblock"><g><svg viewBox="0 0 46.35 54.67740825688074" height="54.67740825688074" width="46.35"><g transform="matrix(1,0,0,1,0,0)"><svg width="46.35" viewBox="3.44 -35.99 31.94 37.67" height="54.67740825688074" data-palette-color="#0063db"><path d="M16.11-34.94L16.11-34.94Q16.06-34.57 16.02-33.78 15.97-32.98 15.88-31.96 15.8-30.93 15.72-29.77 15.65-28.61 15.56-27.53 15.48-26.44 15.39-25.54 15.31-24.63 15.26-24.1L15.26-24.1 16.5-25.37 19.97-29.66Q20.61-30.47 21.24-31.24 21.88-32.01 22.38-32.63 22.88-33.25 23.19-33.67 23.51-34.08 23.56-34.13L23.56-34.13 34.4-35.03Q34.45-35.06 34.62-35.06L34.62-35.06 34.81-35.06Q35.38-35.06 35.38-34.77L35.38-34.77Q35.38-34.59 35.22-34.36 35.06-34.13 34.74-33.76L34.74-33.76Q34.35-33.3 33.61-32.43 32.86-31.57 31.98-30.53 31.1-29.49 30.16-28.38 29.22-27.27 28.42-26.33 27.61-25.39 27.04-24.71 26.46-24.02 26.32-23.83L26.32-23.83 24.78-22.36Q23.22-20.87 20.78-18.65L20.78-18.65Q21.53-17.87 22.4-16.96 23.27-16.04 24.06-15.2 24.85-14.36 25.5-13.67 26.15-12.99 26.46-12.65L26.46-12.65 34.01-3.91Q34.13-3.76 34.33-3.66 34.52-3.56 34.72-3.49 34.91-3.42 35.05-3.33 35.18-3.25 35.18-3.13L35.18-3.13Q35.18-2.98 34.86-2.66L34.86-2.66Q34.67-2.47 34.13-2.09 33.59-1.71 32.87-1.27 32.15-0.83 31.32-0.37 30.49 0.1 29.72 0.48 28.96 0.85 28.31 1.1 27.66 1.34 27.32 1.34L27.32 1.34Q26.81 1.34 26.25 0.89 25.68 0.44 24.9-0.48 24.12-1.39 23.05-2.81 21.97-4.22 20.46-6.13L20.46-6.13Q19.58-7.23 18.75-8.29 17.92-9.35 17.19-10.29 16.46-11.23 15.86-11.98 15.26-12.72 14.87-13.18L14.87-13.18Q14.67-12.99 14.45-12.81 14.23-12.62 14.04-12.43L14.04-12.43 13.18-1.95Q13.16-1.73 13.1-1.51 13.04-1.29 12.77-1.2L12.77-1.2 5.86 1.29Q5.59 1.39 5.15 1.54 4.71 1.68 4.3 1.68L4.3 1.68Q3.93 1.68 3.69 1.49 3.44 1.29 3.44 0.78L3.44 0.78Q3.56-0.66 3.75-2.95 3.93-5.25 4.14-8.19 4.35-11.13 4.58-14.61 4.81-18.09 5.08-21.92L5.08-21.92 5.76-32.2Q5.79-32.64 5.81-32.93 5.83-33.23 5.88-33.42 5.93-33.62 6.05-33.72 6.18-33.81 6.42-33.86L6.42-33.86 14.87-35.89Q15.19-35.99 15.53-35.99L15.53-35.99Q15.87-35.99 15.99-35.78 16.11-35.57 16.11-34.94Z" opacity="1" transform="matrix(1,0,0,1,0,0)" fill="#0063db" class="undefined-text-0" data-fill-palette-color="primary" id="text-0"></path></svg></g></svg></g></svg></g></svg></g><g></g></svg></g></svg></g></svg></g><defs></defs></svg><rect width="125" height="225" fill="none" stroke="none" visibility="hidden"></rect></g></svg></g></svg>